HIERARCHY
ROOT Hips
{
	OFFSET 0.00000 0.00000 0.00000
	CHANNELS 6 Xposition Yposition Zposition Zrotation Yrotation Xrotation 
	JOINT LHipJoint
	{
		OFFSET 0 0 0
		CHANNELS 3 Zrotation Yrotation Xrotation
		JOINT LeftUpLeg
		{
			OFFSET 1.65674 -1.80282 0.62477
			CHANNELS 3 Zrotation Yrotation Xrotation
			JOINT LeftLeg
			{
				OFFSET 2.59720 -7.13576 0.00000
				CHANNELS 3 Zrotation Yrotation Xrotation
				JOINT LeftFoot
				{
					OFFSET 2.49236 -6.84770 0.00000
					CHANNELS 3 Zrotation Yrotation Xrotation
					JOINT LeftToeBase
					{
						OFFSET 0.19704 -0.54136 2.14581
						CHANNELS 3 Zrotation Yrotation Xrotation
						End Site
						{
							OFFSET 0.00000 -0.00000 1.11249
						}
					}
				}
			}
		}
	}
	JOINT RHipJoint
	{
		OFFSET 0 0 0
		CHANNELS 3 Zrotation Yrotation Xrotation
		JOINT RightUpLeg
		{
			OFFSET -1.61070 -1.80282 0.62476
			CHANNELS 3 Zrotation Yrotation Xrotation
			JOINT RightLeg
			{
				OFFSET -2.59502 -7.12977 0.00000
				CHANNELS 3 Zrotation Yrotation Xrotation
				JOINT RightFoot
				{
					OFFSET -2.46780 -6.78024 0.00000
					CHANNELS 3 Zrotation Yrotation Xrotation
					JOINT RightToeBase
					{
						OFFSET -0.23024 -0.63258 2.13368
						CHANNELS 3 Zrotation Yrotation Xrotation
						End Site
						{
							OFFSET -0.00000 -0.00000 1.11569
						}
					}
				}
			}
		}
	}
	JOINT LowerBack
	{
		OFFSET 0 0 0
		CHANNELS 3 Zrotation Yrotation Xrotation
		JOINT Spine
		{
			OFFSET 0.01961 2.05450 -0.14112
			CHANNELS 3 Zrotation Yrotation Xrotation
			JOINT Spine1
			{
				OFFSET 0.01021 2.06436 -0.05921
				CHANNELS 3 Zrotation Yrotation Xrotation
				JOINT Neck
				{
					OFFSET 0 0 0
					CHANNELS 3 Zrotation Yrotation Xrotation
					JOINT Neck1
					{
						OFFSET 0.00713 1.56711 0.14968
						CHANNELS 3 Zrotation Yrotation Xrotation
						JOINT Head
						{
							OFFSET 0.03429 1.56041 -0.10006
							CHANNELS 3 Zrotation Yrotation Xrotation
							End Site
							{
								OFFSET 0.01305 1.62560 -0.05265
							}
						}
					}
				}
				JOINT LeftShoulder
				{
					OFFSET 0 0 0
					CHANNELS 3 Zrotation Yrotation Xrotation
					JOINT LeftArm
					{
						OFFSET 3.54205 0.90436 -0.17364
						CHANNELS 3 Zrotation Yrotation Xrotation
						JOINT LeftForeArm
						{
							OFFSET 4.86513 -0.00000 -0.00000
							CHANNELS 3 Zrotation Yrotation Xrotation
							JOINT LeftHand
							{
								OFFSET 3.35554 -0.00000 0.00000
								CHANNELS 3 Zrotation Yrotation Xrotation
								JOINT LeftFingerBase
								{
									OFFSET 0 0 0
									CHANNELS 3 Zrotation Yrotation Xrotation
									JOINT LeftHandIndex1
									{
										OFFSET 0.66117 -0.00000 0.00000
										CHANNELS 3 Zrotation Yrotation Xrotation
										End Site
										{
											OFFSET 0.53306 -0.00000 0.00000
										}
									}
								}
								JOINT LThumb
								{
									OFFSET 0 0 0
									CHANNELS 3 Zrotation Yrotation Xrotation
									End Site
									{
										OFFSET 0.54120 -0.00000 0.54120
									}
								}
							}
						}
					}
				}
				JOINT RightShoulder
				{
					OFFSET 0 0 0
					CHANNELS 3 Zrotation Yrotation Xrotation
					JOINT RightArm
					{
						OFFSET -3.49802 0.75994 -0.32616
						CHANNELS 3 Zrotation Yrotation Xrotation
						JOINT RightForeArm
						{
							OFFSET -5.02649 -0.00000 0.00000
							CHANNELS 3 Zrotation Yrotation Xrotation
							JOINT RightHand
							{
								OFFSET -3.36431 -0.00000 0.00000
								CHANNELS 3 Zrotation Yrotation Xrotation
								JOINT RightFingerBase
								{
									OFFSET 0 0 0
									CHANNELS 3 Zrotation Yrotation Xrotation
									JOINT RightHandIndex1
									{
										OFFSET -0.73041 -0.00000 0.00000
										CHANNELS 3 Zrotation Yrotation Xrotation
										End Site
										{
											OFFSET -0.58887 -0.00000 0.00000
										}
									}
								}
								JOINT RThumb
								{
									OFFSET 0 0 0
									CHANNELS 3 Zrotation Yrotation Xrotation
									End Site
									{
										OFFSET -0.59786 -0.00000 0.59786
									}
								}
							}
						}
					}
				}
			}
		}
	}
}
MOTION
Frames: 9
Frame Time: .0083333
9.7012 17.0542 -6.2879 -2.9600 -9.4252 -4.2241 0.0000 0.0000 0.0000 -15.8362 -10.7762 -23.3452 1.8479 8.5419 24.3724 -0.3061 13.1013 -14.1402 0.3441 -3.7691 -10.4280 0.0000 0.0000 0.0000 25.8436 -2.1317 22.4122 -0.4673 -4.3847 12.1615 -0.4932 5.6166 -12.5373 -0.5325 4.6760 -12.9868 4.5944 1.5913 5.7884 1.1058 2.3384 3.2387 -1.5605 1.2171 0.2356 2.7422 6.0257 -9.0229 -4.2549 7.8094 -1.5661 -1.4892 3.8085 1.3301 -0.0000 0.0000 0.0000 -95.9474 14.1971 -5.6547 8.5469 -14.4354 -1.0844 -0.0000 0.0000 -7.8529 21.6214 20.1177 7.7632 -7.1250 0.0000 -0.0000 -6.9176 51.3565 -1.0875 -0.0000 0.0000 0.0000 78.7436 20.3999 41.3616 -34.8741 44.7220 -14.7247 0.0000 -0.0000 -16.8357 -24.1114 16.7884 -7.3659 7.1250 -0.0000 -0.0000 2.4696 -11.7023 1.9192
9.7149 17.0561 -6.0822 -2.5856 -9.4623 -4.3866 0.0000 0.0000 0.0000 -16.5989 -10.1574 -23.3919 2.0243 8.9166 25.5347 -0.5397 14.8236 -13.3341 0.2734 -3.3631 -9.2914 0.0000 0.0000 0.0000 25.3703 -2.1343 23.2917 -0.4560 -4.3321 12.0129 -0.4391 5.0867 -11.8119 -0.7213 5.4272 -15.1311 4.0483 1.6039 5.9705 1.0470 2.3480 2.9524 -1.3298 1.2045 -0.1822 3.5269 6.2002 -8.5299 -4.7839 7.9965 -1.3546 -1.7950 3.8942 1.3861 -0.0000 -0.0000 0.0000 -96.0742 14.3931 -6.6666 8.4130 -14.2202 -1.0513 -0.0000 0.0000 -6.8774 21.7186 20.1640 7.8181 -7.1250 0.0000 -0.0000 -6.8353 51.4216 -1.0854 -0.0000 -0.0000 0.0000 78.8038 19.7596 41.4767 -35.0148 44.8227 -14.8238 0.0000 -0.0000 -16.9733 -24.6071 17.1624 -7.6965 7.1250 -0.0000 -0.0000 2.1726 -11.2287 1.7092
9.7303 17.0549 -5.8700 -2.1203 -9.3130 -4.6113 0.0000 0.0000 0.0000 -17.4083 -9.8499 -23.3315 2.2051 9.2809 26.6780 -0.7124 16.0163 -12.6658 0.2678 -3.3291 -9.1963 0.0000 0.0000 0.0000 24.8313 -2.1522 24.2707 -0.4539 -4.3219 11.9840 -0.3845 4.4912 -11.0367 -1.0147 6.4088 -17.9752 3.5153 1.5891 5.9205 0.9251 2.2990 2.9131 -1.1542 1.1749 -0.2153 3.3940 6.2891 -8.7060 -4.3887 8.1291 -0.8531 -1.6273 3.9630 1.5576 -0.0000 -0.0000 0.0000 -96.1211 14.0711 -7.7164 8.2009 -13.8780 -0.9998 -0.0000 0.0000 -5.7675 21.8117 20.2283 7.8784 -7.1250 0.0000 -0.0000 -6.7624 51.5048 -1.0876 -0.0000 -0.0000 0.0000 78.9528 19.4227 41.3054 -35.0368 44.8384 -14.8393 0.0000 -0.0000 -16.6533 -25.1392 17.3170 -7.9517 7.1250 -0.0000 -0.0000 1.8354 -10.9830 1.4528
9.7385 17.0562 -5.6562 -2.2408 -9.0710 -4.7638 0.0000 0.0000 0.0000 -17.4862 -9.7211 -23.2696 2.3949 9.6443 27.8323 -0.7374 16.0066 -11.9712 0.4104 -4.1124 -11.3932 0.0000 0.0000 0.0000 25.0032 -2.2137 24.8498 -0.5003 -4.5344 12.5851 -0.3327 3.8108 -10.2541 -1.2508 7.0906 -19.9841 3.5271 1.5500 5.8108 0.9892 2.2424 2.9474 -1.0876 1.1482 -0.1237 2.8943 6.3332 -8.9063 -3.7373 8.2238 -0.5211 -1.3196 4.0202 1.6442 -0.0000 -0.0000 0.0000 -96.1265 13.6997 -7.9223 8.0873 -13.6944 -0.9727 -0.0000 0.0000 -5.3171 21.9398 20.2046 7.9200 -7.1250 0.0000 -0.0000 -6.6276 51.5023 -1.0653 -0.0000 -0.0000 0.0000 79.0977 19.0996 40.9620 -34.9194 44.7545 -14.7565 0.0000 -0.0000 -16.2229 -25.1754 16.9373 -7.7973 7.1250 -0.0000 -0.0000 1.7778 -11.3887 1.3925
9.7433 17.0624 -5.4467 -2.4517 -8.7237 -4.7845 0.0000 0.0000 0.0000 -17.4554 -9.5823 -23.3005 2.5826 9.9866 28.9332 -0.6256 14.8091 -11.1310 0.4709 -4.4011 -12.2078 0.0000 0.0000 0.0000 25.2872 -2.3278 24.8872 -0.5944 -4.9359 13.7258 -0.2821 3.1726 -9.4418 -1.4013 7.4882 -21.1700 3.6051 1.4631 5.6390 1.0590 2.1269 2.8409 -1.0501 1.0895 -0.1427 2.7626 6.4139 -8.6017 -3.4533 8.3437 -0.5378 -1.2114 4.0896 1.5669 -0.0000 0.0000 0.0000 -96.0080 13.6136 -7.4881 8.0506 -13.6348 -0.9640 -0.0000 0.0000 -5.4214 22.0424 20.1849 7.9531 -7.1250 0.0000 -0.0000 -6.5194 51.4995 -1.0474 -0.0000 0.0000 0.0000 79.3089 18.4685 40.7457 -34.7665 44.6446 -14.6490 0.0000 -0.0000 -16.1988 -25.0402 16.2889 -7.4650 7.1250 -0.0000 -0.0000 1.8120 -12.1107 1.3922
9.7515 17.0490 -5.2421 -2.1585 -8.3208 -4.8042 0.0000 0.0000 0.0000 -18.0144 -9.3289 -23.4331 2.7724 10.3171 30.0099 -0.4729 13.0576 -10.1356 0.2382 -3.1407 -8.6706 0.0000 0.0000 0.0000 25.0272 -2.3076 24.6313 -0.7575 -5.5587 15.5092 -0.2532 2.8531 -8.9493 -1.3738 7.4175 -20.9584 3.2914 1.3622 5.3080 0.9149 1.9656 2.7466 -1.0066 1.0073 -0.0693 2.9655 6.4818 -8.0798 -3.4292 8.4246 -0.6804 -1.2524 4.1364 1.4405 -0.0000 0.0000 0.0000 -95.7616 13.3818 -7.2615 7.9647 -13.4956 -0.9439 -0.0000 0.0000 -5.4244 21.7516 20.4191 7.9247 -7.1250 0.0000 -0.0000 -6.8812 51.6934 -1.1387 -0.0000 0.0000 0.0000 79.7025 17.7727 40.5251 -34.6952 44.5933 -14.5990 0.0000 -0.0000 -16.2514 -25.0879 16.3704 -7.5170 7.1250 -0.0000 -0.0000 1.7871 -12.0158 1.3766
9.7561 17.0576 -5.0397 -2.1186 -8.1127 -4.7198 0.0000 0.0000 0.0000 -18.2629 -8.8974 -23.5815 2.9356 10.5901 30.9097 -0.3687 11.6557 -9.2609 0.1050 -2.0895 -5.7531 0.0000 0.0000 0.0000 25.0651 -2.0205 23.9731 -1.0002 -6.3644 17.8454 -0.2196 2.6208 -8.3333 -1.3499 7.3553 -20.7722 3.1879 1.3385 5.0401 0.8397 1.9225 2.5908 -1.0190 0.9838 -0.0834 3.2461 6.5039 -7.7044 -3.4545 8.4431 -0.5725 -1.3167 4.1485 1.4262 -0.0000 -0.0000 0.0000 -95.5243 13.0011 -7.7864 7.8523 -13.3132 -0.9178 -0.0000 0.0000 -4.6384 21.1525 20.5717 7.7422 -7.1250 0.0000 -0.0000 -7.5265 51.7476 -1.2565 -0.0000 -0.0000 0.0000 80.1987 17.0645 40.1801 -34.5541 44.4911 -14.4999 0.0000 -0.0000 -16.1089 -25.2983 17.0455 -7.8882 7.1250 -0.0000 -0.0000 1.7062 -11.2532 1.3410
9.7541 17.0654 -4.8402 -2.4307 -8.0006 -4.5233 0.0000 0.0000 0.0000 -18.0828 -8.5183 -23.7032 3.0792 10.8222 31.6827 -0.3201 10.9916 -8.9859 0.1226 -2.2571 -6.2168 0.0000 0.0000 0.0000 25.4973 -1.6551 22.9124 -1.3182 -7.2719 20.5235 -0.1647 2.2214 -7.2168 -1.4822 7.6920 -21.7824 3.2895 1.3019 4.7905 0.9180 1.8725 2.4408 -0.9889 0.9575 -0.0999 3.2752 6.6041 -8.0578 -3.3034 8.5733 0.0665 -1.2468 4.2111 1.6938 0.0000 -0.0000 0.0000 -95.3779 12.4791 -8.4800 7.7350 -13.1225 -0.8910 -0.0000 0.0000 -3.6217 20.8824 20.5628 7.6322 -7.1250 0.0000 -0.0000 -7.7924 51.6914 -1.2906 0.0000 -0.0000 0.0000 80.6191 16.4848 40.0800 -34.1957 44.2292 -14.2494 0.0000 -0.0000 -16.2070 -25.8401 17.0144 -8.0655 7.1250 -0.0000 -0.0000 1.3459 -11.2057 1.0590
9.7574 17.0723 -4.6417 -2.1826 -7.6941 -4.5025 0.0000 0.0000 0.0000 -18.5874 -8.3921 -23.4214 3.1935 11.0019 32.2863 -0.3038 10.8791 -9.2254 0.1483 -2.4817 -6.8390 0.0000 0.0000 0.0000 25.2143 -1.5395 21.8208 -1.6818 -8.1691 23.2289 -0.1069 1.8257 -5.8115 -1.6131 8.0089 -22.7411 2.9072 1.2669 4.5368 0.8705 1.8011 2.4139 -0.8147 0.9201 -0.0003 3.1781 6.6581 -8.5080 -3.2023 8.6500 0.6169 -1.1717 4.2452 1.9467 0.0000 -0.0000 0.0000 -95.2231 11.8517 -8.4084 7.5886 -12.8838 -0.8581 -0.0000 0.0000 -3.2623 20.9304 20.1959 7.5219 -7.1250 0.0000 -0.0000 -7.6268 51.3194 -1.1931 0.0000 -0.0000 0.0000 80.6765 15.6594 40.0679 -34.1786 44.2166 -14.2375 0.0000 -0.0000 -16.8268 -26.1644 16.4547 -7.9225 7.1250 -0.0000 -0.0000 1.0798 -11.7672 0.8370
